<?xml version="1.0" encoding="UTF-8"?>
<svg viewBox="0 0 512 512" xmlns="http://www.w3.org/2000/svg">
  <title>Rnix App Icon - Emergence Lattice</title>
  <defs>
    <clipPath id="ic"><rect width="512" height="512" rx="108"/></clipPath>
  </defs>
  <rect width="512" height="512" rx="108" fill="#0A0F1E"/>
  <!-- scale 2.55x, bolder fill ratio -->
  <g clip-path="url(#ic)" transform="translate(1,1) scale(2.55)">

    <!-- Second ring context -->
    <g fill="none" stroke="#FFFFFF" stroke-width="0.8" opacity="0.06">
      <polygon points="178,27 202,41 202,69 178,83 154,69 154,41"/>
      <polygon points="22,27 46,41 46,69 22,83 -2,69 -2,41"/>
      <polygon points="22,117 46,131 46,159 22,173 -2,159 -2,131"/>
    </g>

    <!-- Growth hint beyond UL -->
    <polyline points="24,24 48,38 72,24"
              fill="none" stroke="#FFFFFF" stroke-width="0.8" opacity="0.06"
              stroke-linecap="round"/>

    <!-- UL: ghost outline + reinforced inner edges -->
    <polygon points="74,27 98,41 98,69 74,83 50,69 50,41"
             fill="none" stroke="#FFFFFF" stroke-width="0.8" opacity="0.05"/>
    <polyline points="98,41 98,69 74,83 50,69"
              fill="none" stroke="#FFFFFF" stroke-width="1.2" opacity="0.14"
              stroke-linecap="round"/>

    <!-- L: ghost -->
    <polygon points="48,72 72,86 72,114 48,128 24,114 24,86"
             fill="#FFFFFF" opacity="0.05"/>

    <!-- 4 semi-activated -->
    <polygon points="74,117 98,131 98,159 74,173 50,159 50,131"
             fill="#FFFFFF" opacity="0.12"/>
    <polygon points="126,117 150,131 150,159 126,173 102,159 102,131"
             fill="#FFFFFF" opacity="0.2"/>
    <polygon points="126,27 150,41 150,69 126,83 102,69 102,41"
             fill="#FFFFFF" opacity="0.28"/>
    <polygon points="152,72 176,86 176,114 152,128 128,114 128,86"
             fill="#FFFFFF" opacity="0.42"/>

    <!-- Center glow -->
    <circle cx="100" cy="100" r="34" fill="#4A9EFF" opacity="0.08"/>
    <circle cx="100" cy="100" r="22" fill="#4A9EFF" opacity="0.14"/>

    <!-- Center hex -->
    <polygon points="100,72 124,86 124,114 100,128 76,114 76,86"
             fill="#4A9EFF"/>
  </g>
</svg>
